<?xml version="1.0" encoding="UTF-8" standalone="no"?>
<!DOCTYPE svg PUBLIC "-//W3C//DTD SVG 1.1//EN" "http://www.w3.org/Graphics/SVG/1.1/DTD/svg11.dtd">
<svg width="100%" height="100%" viewBox="0 0 249 174" version="1.1" xmlns="http://www.w3.org/2000/svg" xmlns:xlink="http://www.w3.org/1999/xlink" xml:space="preserve" xmlns:serif="http://www.serif.com/" style="fill-rule:evenodd;clip-rule:evenodd;stroke-linejoin:round;stroke-miterlimit:2;">
    <g transform="matrix(1,0,0,1,-2297.72,-2517.52)">
        <g transform="matrix(1,0,0,0.848491,1929.84,0)">
            <g id="logo.svg" transform="matrix(0.106592,0,0,0.125626,492.378,3069.38)">
                <g transform="matrix(1,0,0,1,-1168,-814.5)">
                    <g transform="matrix(0.1,0,0,-0.1,0,1629)">
                        <path d="M4432,10107C3237,6713 2229,3850 2191,3745C2154,3641 2061,3375 1985,3155C1731,2416 1571,2046 1277,1525C905,866 579,505 88,211L0,158L0,0L4580,0L4580,160L4546,160C4484,160 4302,200 4197,236C3704,408 3354,801 3260,1290C3219,1501 3181,2012 3173,2455C3161,3135 3211,3980 3301,4620C3344,4927 3447,5491 3466,5521C3469,5526 4442,5530 5700,5530L7929,5530L7954,5448C7967,5402 8121,4881 8295,4290C8469,3699 8633,3148 8660,3065C8755,2770 8897,2233 8949,1970C9065,1380 9031,950 8845,670C8685,430 8395,267 7977,184L7840,157L7840,0L12723,0C15913,0 17673,4 17800,10C18649,55 19283,205 19895,505C20364,736 20740,1010 21156,1425C21371,1640 21503,1790 21677,2021C22599,3240 23181,4952 23325,6860C23496,9144 23024,11380 22048,12910C21768,13348 21474,13716 21143,14041C20299,14869 19271,15277 17535,15474C16733,15565 16542,15570 13852,15570L11619,15570L11625,15408L11770,15363C12169,15240 12429,15106 12621,14923C12734,14815 12796,14733 12865,14598C13000,14335 13059,14044 13081,13525C13096,13172 13087,3239 13072,2940C13044,2398 13018,2068 12979,1770C12880,1004 12703,489 12446,214C12372,135 12386,131 12304,252C12201,405 12109,611 11852,1265C11759,1502 11626,1835 11558,2005C11414,2362 11177,2988 11026,3413C10969,3574 9953,6531 8770,9985C7586,13439 6614,16268 6611,16272C6607,16276 5627,13502 4432,10107ZM16100,15389C17271,15313 18106,14992 18754,14369C19349,13797 19815,12953 20270,11625C20593,10681 20732,9560 20734,7885C20734,7346 20727,7091 20694,6540C20601,4951 20385,3911 19963,3020C19889,2864 19793,2689 19677,2495C19156,1627 18833,1207 18459,908C17854,425 17073,220 15628,164L15450,157L15450,7777C15450,11968 15453,15400 15458,15405C15466,15414 15873,15404 16100,15389ZM6775,9375C7367,7406 7853,5787 7856,5778C7861,5761 7753,5760 5685,5760C3617,5760 3509,5761 3514,5778C3517,5787 3551,5922 3590,6078C3808,6951 4097,7952 4940,10750C5177,11534 5676,13010 5692,12972C5696,12963 6184,11344 6775,9375Z" style="fill-rule:nonzero;"/>
                    </g>
                </g>
            </g>
        </g>
    </g>
</svg>
