<?xml version="1.0" encoding="UTF-8" standalone="no"?>
<!DOCTYPE svg PUBLIC "-//W3C//DTD SVG 1.1//EN" "http://www.w3.org/Graphics/SVG/1.1/DTD/svg11.dtd">
<svg width="100%" height="100%" viewBox="0 0 1134 193" version="1.1" xmlns="http://www.w3.org/2000/svg" xmlns:xlink="http://www.w3.org/1999/xlink" xml:space="preserve" xmlns:serif="http://www.serif.com/" style="fill-rule:evenodd;clip-rule:evenodd;stroke-linejoin:round;stroke-miterlimit:2;">
    <g transform="matrix(2.40822,0,0,2.40822,1531.49,-418.935)">
        <g id="layer1">
            <path id="path2418" d="M-590.938,253.658L-635.945,253.658L-635.945,173.971L-587.46,173.971C-557.605,173.971 -540.993,187.214 -540.321,210.223C-539.647,230.089 -557.043,253.658 -590.938,253.658ZM-594.53,188.786L-606.765,188.786L-606.765,239.404L-595.091,239.404C-580.726,239.404 -568.603,226.609 -569.502,212.243C-570.287,198.999 -581.286,188.786 -594.53,188.786ZM-506.425,253.658C-516.415,253.658 -518.547,253.546 -523.71,248.608C-525.842,246.587 -527.975,239.517 -527.975,235.813L-527.638,173.971L-459.061,173.971L-459.061,189.234L-498.007,189.234L-498.007,206.968L-459.061,206.968L-459.061,220.324L-498.007,220.324L-498.007,231.661C-498.007,232.894 -496.323,235.477 -494.527,236.936C-492.507,238.507 -490.487,239.293 -487.793,239.293L-459.061,239.293L-459.061,253.658L-506.425,253.658ZM-392.168,189.347L-392.168,253.771L-420.452,253.771L-420.452,189.347L-450.756,189.347L-450.756,174.083L-362.763,174.083L-362.763,189.347L-392.168,189.347ZM-309.227,253.771L-318.206,233.793L-348.397,233.793L-358.611,253.771L-376.681,253.771L-338.185,174.083L-316.522,174.083L-278.475,253.771L-309.227,253.771ZM-332.908,200.796L-343.235,220.212L-323.93,220.212L-332.908,200.796ZM-268.71,253.771L-268.71,174.083L-239.305,174.083L-239.305,253.771L-268.71,253.771ZM-191.492,253.771C-201.482,253.771 -205.072,253.658 -210.236,248.721C-212.256,246.812 -213.041,239.517 -213.041,235.926L-212.816,174.083L-184.76,174.083L-184.76,231.772C-184.76,233.119 -183.523,237.272 -181.278,239.068C-179.258,240.639 -177.237,241.426 -174.545,241.426L-165.116,241.426L-165.116,253.771L-191.492,253.771" style="fill-rule:nonzero;"/>
        </g>
    </g>
</svg>
