<?xml version="1.0" encoding="UTF-8" standalone="no"?>
<!DOCTYPE svg PUBLIC "-//W3C//DTD SVG 1.1//EN" "http://www.w3.org/Graphics/SVG/1.1/DTD/svg11.dtd">
<svg width="100%" height="100%" viewBox="0 0 255 69" version="1.1" xmlns="http://www.w3.org/2000/svg" xmlns:xlink="http://www.w3.org/1999/xlink" xml:space="preserve" xmlns:serif="http://www.serif.com/" style="fill-rule:evenodd;clip-rule:evenodd;stroke-linejoin:round;stroke-miterlimit:2;">
    <g transform="matrix(1.33333,0,0,1.33333,-1791.79,999.386)">
        <g transform="matrix(0.311026,0,0,0.311026,1137.24,-1543.72)">
            <g transform="matrix(4.02842,0,0,4.02842,-2004.16,-57.3632)">
                <path d="M732.646,661.169L732.646,666.019C731.812,665.886 730.962,665.819 730.096,665.819C727.929,665.819 726.337,666.461 725.321,667.744C724.304,669.027 723.796,671.136 723.796,674.069L723.796,688.169L719.246,688.169L719.246,661.269L723.696,661.269L723.696,665.969C725.062,662.902 727.596,661.286 731.296,661.119C731.829,661.119 732.279,661.136 732.646,661.169Z" style="fill:white;fill-rule:nonzero;"/>
            </g>
            <g transform="matrix(4.02842,0,0,4.02842,-2004.16,-57.3632)">
                <path d="M760.246,676.219L739.546,676.219C739.612,678.952 740.471,681.069 742.121,682.569C743.771,684.069 745.679,684.819 747.846,684.819C751.446,684.819 753.896,683.336 755.196,680.369L759.896,680.369C759.262,682.802 757.879,684.819 755.746,686.419C753.612,688.019 750.979,688.819 747.846,688.819C743.712,688.819 740.479,687.502 738.146,684.869C735.812,682.236 734.646,678.869 734.646,674.769C734.646,670.569 735.879,667.194 738.346,664.644C740.812,662.094 743.929,660.819 747.696,660.819C751.729,660.819 754.896,662.294 757.196,665.244C759.496,668.194 760.512,671.852 760.246,676.219ZM747.696,664.719C745.529,664.719 743.687,665.352 742.171,666.619C740.654,667.886 739.796,669.786 739.596,672.319L755.446,672.319C755.379,670.286 754.646,668.511 753.246,666.994C751.846,665.477 749.996,664.719 747.696,664.719Z" style="fill:white;fill-rule:nonzero;"/>
            </g>
            <g transform="matrix(4.02842,0,0,4.02842,-2004.16,-57.3632)">
                <path d="M782.246,676.919L782.246,675.219C777.679,675.652 774.287,676.286 772.071,677.119C769.854,677.952 768.746,679.236 768.746,680.969C768.746,682.269 769.212,683.302 770.146,684.069C771.079,684.836 772.346,685.219 773.946,685.219C776.346,685.219 778.329,684.569 779.896,683.269C781.462,681.969 782.246,679.852 782.246,676.919ZM772.946,688.819C770.312,688.819 768.112,688.127 766.346,686.744C764.579,685.361 763.696,683.469 763.696,681.069C763.696,679.536 764.104,678.219 764.921,677.119C765.737,676.019 767.004,675.111 768.721,674.394C770.437,673.677 772.312,673.119 774.346,672.719C776.379,672.319 778.896,671.952 781.896,671.619L781.896,670.969C781.896,666.602 779.862,664.419 775.796,664.419C773.929,664.419 772.462,664.886 771.396,665.819C770.329,666.752 769.746,668.069 769.646,669.769L764.946,669.769C765.146,667.002 766.304,664.802 768.421,663.169C770.537,661.536 772.979,660.719 775.746,660.719C779.512,660.719 782.246,661.611 783.946,663.394C785.646,665.177 786.479,667.986 786.446,671.819L786.396,678.019C786.362,682.386 786.596,685.769 787.096,688.169L782.496,688.169C782.296,686.869 782.179,685.636 782.146,684.469C780.446,687.369 777.379,688.819 772.946,688.819Z" style="fill:white;fill-rule:nonzero;"/>
            </g>
            <g transform="matrix(4.02842,0,0,4.02842,-2004.16,-57.3632)">
                <path d="M809.896,688.169L809.896,684.319C808.062,687.319 805.246,688.819 801.446,688.819C795.712,688.819 792.846,685.369 792.846,678.469L792.846,661.269L797.396,661.269L797.396,677.119C797.396,679.586 797.771,681.494 798.521,682.844C799.271,684.194 800.779,684.869 803.046,684.869C805.246,684.869 806.937,684.127 808.121,682.644C809.304,681.161 809.896,678.969 809.896,676.069L809.896,661.269L814.446,661.269L814.446,688.169L809.896,688.169Z" style="fill:white;fill-rule:nonzero;"/>
            </g>
            <g transform="matrix(5.17119,0,0,5.17119,-2952.09,-842.679)">
                <path d="M727.908,666.929C728.429,666.929 728.803,667.165 729.029,667.637C729.256,668.109 729.317,668.719 729.211,669.468C729.088,670.347 728.869,671.209 728.555,672.056L725.714,680.112C725.353,681.056 725.116,681.935 725.001,682.749C724.804,684.149 725.015,684.849 725.634,684.849C726.09,684.849 726.794,684.466 727.748,683.701C728.702,682.936 729.729,681.943 730.828,680.723C731.927,679.502 733.015,678.013 734.093,676.255C735.17,674.497 735.992,672.756 736.56,671.03L737.926,667.222C738.367,667.092 738.881,667.026 739.467,667.026C740.053,667.026 740.597,667.092 741.099,667.222L735.856,682.993C735.703,683.384 735.597,683.791 735.537,684.214C735.423,685.028 735.529,685.435 735.854,685.435C736.05,685.435 736.298,685.345 736.6,685.166C736.902,684.987 737.209,684.767 737.523,684.507C737.836,684.246 738.124,683.994 738.386,683.75C738.648,683.506 738.891,683.286 739.113,683.091L739.454,682.749C739.519,682.749 739.62,682.904 739.755,683.213C739.891,683.522 739.95,683.742 739.931,683.872C739.407,684.588 738.396,685.532 736.896,686.704C735.397,687.876 734.143,688.462 733.134,688.462C732.613,688.462 732.239,688.226 732.013,687.754C731.786,687.282 731.725,686.672 731.83,685.923C731.904,685.402 732.139,684.539 732.536,683.335L734.046,678.843C733.634,679.461 732.825,680.47 731.619,681.87C730.413,683.27 728.94,684.718 727.199,686.216C725.459,687.713 724.101,688.462 723.124,688.462C721.496,688.462 720.834,687.388 721.136,685.239C721.346,683.742 721.823,681.968 722.567,679.917L724.986,673.13C725.313,671.958 725.486,671.307 725.504,671.177C725.619,670.363 725.513,669.956 725.188,669.956C725.058,669.956 724.868,670.029 724.62,670.176C724.371,670.322 724.109,670.509 723.833,670.737C723.557,670.965 723.307,671.177 723.084,671.372C722.862,671.567 722.655,671.763 722.465,671.958C722.275,672.153 722.18,672.251 722.18,672.251C722.115,672.251 722.014,672.096 721.879,671.787C721.743,671.478 721.684,671.258 721.703,671.128C722.185,670.477 723.128,669.614 724.532,668.54C725.936,667.466 727.062,666.929 727.908,666.929Z" style="fill:white;fill-rule:nonzero;"/>
            </g>
            <g transform="matrix(4.02842,0,0,4.02842,-2233.16,-57.3632)">
                <path d="M725.846,667.269C724.346,668.969 723.596,671.486 723.596,674.819C723.596,678.152 724.354,680.669 725.871,682.369C727.387,684.069 729.246,684.919 731.446,684.919C733.812,684.919 735.687,684.027 737.071,682.244C738.454,680.461 739.146,677.986 739.146,674.819C739.146,671.652 738.454,669.177 737.071,667.394C735.687,665.611 733.812,664.719 731.446,664.719C729.246,664.719 727.379,665.569 725.846,667.269ZM719.246,648.087L723.796,648.087L723.796,665.519C725.596,662.386 728.529,660.819 732.596,660.819C735.829,660.819 738.554,662.086 740.771,664.619C742.987,667.152 744.096,670.552 744.096,674.819C744.096,679.119 742.987,682.527 740.771,685.044C738.554,687.561 735.829,688.819 732.596,688.819C728.529,688.819 725.596,687.252 723.796,684.119L723.796,688.169L719.246,688.169L719.246,648.087Z" style="fill:white;fill-rule:nonzero;"/>
            </g>
        </g>
    </g>
</svg>
