<?xml version="1.0" encoding="UTF-8" standalone="no"?>
<!DOCTYPE svg PUBLIC "-//W3C//DTD SVG 1.1//EN" "http://www.w3.org/Graphics/SVG/1.1/DTD/svg11.dtd">
<svg width="100%" height="100%" viewBox="0 0 703 180" version="1.1" xmlns="http://www.w3.org/2000/svg" xmlns:xlink="http://www.w3.org/1999/xlink" xml:space="preserve" xmlns:serif="http://www.serif.com/" style="fill-rule:evenodd;clip-rule:evenodd;stroke-linejoin:round;stroke-miterlimit:2;">
    <g transform="matrix(1,0,0,1,-9.64,0.01)">
        <path d="M76.3,177L101.33,177L101.33,1.65L69.5,1.65L56.5,94.26L43.81,1.65L9.64,1.65L9.64,177L33.44,177L33.44,63.63L49.7,177L60.3,177L76.3,63.65L76.3,177ZM105.71,177L167.22,177L167.22,150.35L132.34,150.35L132.34,99.68L164.15,99.68L164.15,73.29L132.34,73.29L132.34,27.34L166,27.34L166,1.65L105.71,1.65L105.71,177ZM218.51,27.1L240.9,27.1L240.9,1.65L169.73,1.65L169.73,27.1L192.12,27.1L192.12,177L218.51,177L218.51,27.1ZM288,61.27C288,69.05 285.64,73.76 278.34,73.76L271.27,73.76L271.27,25.45L278.34,25.45C286.34,25.45 288,29.22 288,36.76L288,61.27ZM290.55,177L316.94,177L316.94,175.8C315.76,173.21 314.35,169.91 314.35,162.8L314.35,101.33C314.35,89.55 308.69,84.83 302.8,82.24C307.51,80.12 314.35,74.46 314.35,59.85L314.35,28.75C314.35,9.19 305.35,1.65 287.72,1.65L244.59,1.65L244.59,177L271.22,177L271.22,98.74L278.05,98.74C286.53,98.74 287.95,102.04 287.95,109.82L287.95,162.61C287.95,172.03 289.37,175.09 290.55,176.98M364.23,139.75C364.23,147.29 362.34,153.18 355.23,153.18C347.69,153.18 345.57,147.29 345.57,139.75L345.57,38.88C345.57,29.88 348.16,25.45 355,25.45C361.13,25.45 364.19,29.69 364.19,38.88L364.23,139.75ZM391.33,137.86L391.33,40.06C391.33,16 383.08,0 357.16,0L352.68,0C327.68,0 318.51,16 318.51,40.3L318.51,137.86C318.51,162.37 327.46,179.1 352.92,179.1L357.4,179.1C383.08,179.1 391.33,162.37 391.33,137.86M438.39,66.22C438.39,73.29 437.21,78.95 429.2,78.95L422.37,78.95L422.37,25.45L429.2,25.45C436.98,25.45 438.39,30.63 438.39,37.45L438.39,66.22ZM465.25,72.11L465.25,30.63C465.25,9.63 456.77,1.63 437.91,1.63L395.73,1.63L395.73,177L422.36,177L422.36,104.15L437.91,104.15C456.06,104.15 465.25,92.85 465.25,72.15M514.9,139.79C514.9,147.33 513.01,153.22 505.9,153.22C498.36,153.22 496.24,147.33 496.24,139.79L496.24,38.88C496.24,29.88 498.83,25.45 505.67,25.45C511.8,25.45 514.86,29.69 514.86,38.88L514.9,139.79ZM542,137.9L542,40.06C542,16 533.75,0 507.83,0L503.35,0C478.35,0 469.18,16 469.18,40.3L469.18,137.86C469.18,162.37 478.18,179.1 503.59,179.1L508.07,179.1C533.75,179.1 542,162.37 542,137.86M546.37,177L605.52,177L605.52,149.9L573,149.9L573,1.65L546.37,1.65L546.37,177ZM609.45,177L636.08,177L636.08,1.65L609.45,1.65L609.45,177ZM668.77,39.12L668.77,35.82C668.77,27.57 670.18,23.56 676.55,23.56C682.92,23.56 684.09,28.04 684.09,33.93L684.09,59.14L709.78,59.14L709.78,30.39C709.78,9.65 701.3,-0.01 679.38,-0.01L674.38,-0.01C653.38,-0.01 641.62,10.83 641.62,34.16L641.62,39.82C641.62,57.26 644.92,68.57 656.23,83.18L673.23,104.86C682.89,117.35 684.07,121.86 684.07,134.32L684.07,138.32C684.07,149.16 681.71,153.4 675.35,153.4C669.22,153.4 666.63,149.16 666.63,141.15L666.63,110.52L640.26,110.52L640.26,145.63C640.26,167.31 651.57,178.86 672.78,178.86L678,178.86C701.33,178.86 712.41,163.54 712.41,137.86L712.41,132.2C712.41,112.4 708.64,103.45 696.62,87.89L679.62,66C670.62,54.48 668.77,49.06 668.77,39.16" style="fill-rule:nonzero;"/>
    </g>
</svg>
